<svg width="350" height="350" viewBox="0 0 350 350" fill="none" xmlns="http://www.w3.org/2000/svg">
<rect width="350" height="350" fill="#F4C262"/>
<path fill-rule="evenodd" clip-rule="evenodd" d="M23 23.3333C23 22.597 23.597 22 24.3333 22H40.3333C41.0697 22 41.6667 22.597 41.6667 23.3333V23.3333C41.6667 24.0697 41.0697 24.6667 40.3333 24.6667V24.6667C39.597 24.6667 39 25.2636 39 26V34.6667C39 35.0349 39.2985 35.3333 39.6667 35.3333V35.3333C40.0349 35.3333 40.3333 35.6318 40.3333 36V36.6667C40.3333 37.403 39.7364 38 39 38H38.3333C37.2288 38 36.3333 37.1046 36.3333 36V34C36.3333 33.2636 35.7364 32.6667 35 32.6667V32.6667C34.2636 32.6667 33.6667 33.2636 33.6667 34V34.6667C33.6667 35.0349 33.9651 35.3333 34.3333 35.3333V35.3333C34.7015 35.3333 35 35.6318 35 36V36.6667C35 37.403 34.403 38 33.6667 38H31C30.2636 38 29.6667 37.403 29.6667 36.6667V36C29.6667 35.6318 29.9651 35.3333 30.3333 35.3333V35.3333C30.7015 35.3333 31 35.0349 31 34.6667V34C31 33.2636 30.403 32.6667 29.6667 32.6667V32.6667C28.9303 32.6667 28.3333 33.2636 28.3333 34V36C28.3333 37.1046 27.4379 38 26.3333 38H25.6667C24.9303 38 24.3333 37.403 24.3333 36.6667V36C24.3333 35.6318 24.6318 35.3333 25 35.3333V35.3333C25.3682 35.3333 25.6667 35.0349 25.6667 34.6667V26C25.6667 25.2636 25.0697 24.6667 24.3333 24.6667V24.6667C23.597 24.6667 23 24.0697 23 23.3333V23.3333ZM35 30C35.7364 30 36.3333 29.403 36.3333 28.6667V26C36.3333 25.2636 35.7364 24.6667 35 24.6667V24.6667C34.2636 24.6667 33.6667 25.2636 33.6667 26V28.6667C33.6667 29.403 34.2636 30 35 30V30ZM31 28.6667C31 29.403 30.403 30 29.6667 30V30C28.9303 30 28.3333 29.403 28.3333 28.6667V26C28.3333 25.2636 28.9303 24.6667 29.6667 24.6667V24.6667C30.403 24.6667 31 25.2636 31 26V28.6667Z" fill="#1F2632"/>
<path d="M28.3333 40.6667C28.3333 39.9303 28.9303 39.3333 29.6667 39.3333H35.3333C36.0697 39.3333 36.6667 39.9303 36.6667 40.6667V40.6667C36.6667 41.403 36.0697 42 35.3333 42H29.6667C28.9303 42 28.3333 41.403 28.3333 40.6667V40.6667Z" fill="#1F2632"/>
<path d="M74 165.96L79.136 179.712L84.248 165.96H87.104L80.408 183H77.864L71.144 165.96H74ZM87.5851 179.328C87.5851 178.528 87.8091 177.832 88.2571 177.24C88.7211 176.632 89.3531 176.168 90.1531 175.848C90.9531 175.512 91.8811 175.344 92.9371 175.344C93.4971 175.344 94.0651 175.384 94.6411 175.464C95.2331 175.544 95.7531 175.672 96.2011 175.848V175.056C96.2011 174.176 95.9371 173.488 95.4091 172.992C94.8811 172.496 94.1211 172.248 93.1291 172.248C92.4251 172.248 91.7611 172.376 91.1371 172.632C90.5131 172.872 89.8491 173.216 89.1451 173.664L88.2571 171.888C89.0891 171.328 89.9211 170.912 90.7531 170.64C91.6011 170.368 92.4891 170.232 93.4171 170.232C95.0971 170.232 96.4171 170.68 97.3771 171.576C98.3531 172.456 98.8411 173.712 98.8411 175.344V180.024C98.8411 180.328 98.8891 180.544 98.9851 180.672C99.0971 180.8 99.2811 180.872 99.5371 180.888V183C99.2971 183.048 99.0811 183.08 98.8891 183.096C98.6971 183.112 98.5371 183.12 98.4091 183.12C97.8491 183.12 97.4251 182.984 97.1371 182.712C96.8491 182.44 96.6811 182.12 96.6331 181.752L96.5611 181.032C96.0171 181.736 95.3211 182.28 94.4731 182.664C93.6251 183.048 92.7691 183.24 91.9051 183.24C91.0731 183.24 90.3291 183.072 89.6731 182.736C89.0171 182.384 88.5051 181.912 88.1371 181.32C87.7691 180.728 87.5851 180.064 87.5851 179.328ZM95.5771 180.096C95.7691 179.888 95.9211 179.68 96.0331 179.472C96.1451 179.264 96.2011 179.08 96.2011 178.92V177.48C95.7531 177.304 95.2811 177.176 94.7851 177.096C94.2891 177 93.8011 176.952 93.3211 176.952C92.3611 176.952 91.5771 177.144 90.9691 177.528C90.3771 177.912 90.0811 178.44 90.0811 179.112C90.0811 179.48 90.1771 179.832 90.3691 180.168C90.5771 180.504 90.8651 180.776 91.2331 180.984C91.6171 181.192 92.0891 181.296 92.6491 181.296C93.2251 181.296 93.7771 181.184 94.3051 180.96C94.8331 180.736 95.2571 180.448 95.5771 180.096ZM103.028 165.48H105.668V179.376C105.668 180.016 105.764 180.424 105.956 180.6C106.148 180.776 106.388 180.864 106.676 180.864C106.996 180.864 107.292 180.832 107.564 180.768C107.852 180.704 108.1 180.624 108.308 180.528L108.692 182.616C108.308 182.776 107.852 182.912 107.324 183.024C106.796 183.136 106.324 183.192 105.908 183.192C105.012 183.192 104.308 182.944 103.796 182.448C103.284 181.936 103.028 181.232 103.028 180.336V165.48ZM111.183 183V170.448H113.823V183H111.183ZM111.183 168.384V165.48H113.823V168.384H111.183ZM117.163 176.736C117.163 175.536 117.403 174.448 117.883 173.472C118.379 172.48 119.051 171.696 119.899 171.12C120.747 170.528 121.723 170.232 122.827 170.232C123.787 170.232 124.651 170.48 125.419 170.976C126.203 171.472 126.811 172.088 127.243 172.824V165.48H129.883V180.024C129.883 180.328 129.939 180.544 130.051 180.672C130.163 180.8 130.347 180.872 130.603 180.888V183C130.107 183.08 129.723 183.12 129.451 183.12C128.955 183.12 128.531 182.976 128.179 182.688C127.843 182.4 127.667 182.056 127.651 181.656L127.627 180.72C127.147 181.52 126.499 182.144 125.683 182.592C124.867 183.024 124.019 183.24 123.139 183.24C122.275 183.24 121.475 183.072 120.739 182.736C120.019 182.4 119.387 181.928 118.843 181.32C118.315 180.712 117.899 180.016 117.595 179.232C117.307 178.448 117.163 177.616 117.163 176.736ZM127.243 178.488V175.2C127.067 174.688 126.779 174.232 126.379 173.832C125.995 173.416 125.555 173.088 125.059 172.848C124.579 172.608 124.099 172.488 123.619 172.488C123.059 172.488 122.547 172.608 122.083 172.848C121.635 173.088 121.243 173.408 120.907 173.808C120.587 174.208 120.339 174.664 120.163 175.176C119.987 175.688 119.899 176.224 119.899 176.784C119.899 177.36 119.995 177.904 120.187 178.416C120.379 178.912 120.651 179.36 121.003 179.76C121.371 180.144 121.787 180.448 122.251 180.672C122.731 180.88 123.251 180.984 123.811 180.984C124.163 180.984 124.515 180.92 124.867 180.792C125.235 180.664 125.579 180.488 125.899 180.264C126.235 180.04 126.515 179.776 126.739 179.472C126.979 179.168 127.147 178.84 127.243 178.488ZM134.509 183V165.984H137.197V174.744L145.213 165.96H148.189L141.469 173.496L148.573 183H145.525L139.765 175.2L137.197 177.864V183H134.509ZM162.233 183H159.593V175.968C159.593 174.832 159.385 173.984 158.969 173.424C158.553 172.864 157.969 172.584 157.217 172.584C156.753 172.584 156.273 172.712 155.777 172.968C155.281 173.224 154.841 173.576 154.457 174.024C154.073 174.456 153.793 174.96 153.617 175.536V183H150.977V165.48H153.617V172.968C154.097 172.12 154.753 171.456 155.585 170.976C156.417 170.48 157.313 170.232 158.273 170.232C159.057 170.232 159.705 170.368 160.217 170.64C160.729 170.912 161.129 171.288 161.417 171.768C161.721 172.232 161.929 172.776 162.041 173.4C162.169 174.008 162.233 174.656 162.233 175.344V183ZM165.345 179.328C165.345 178.528 165.569 177.832 166.017 177.24C166.481 176.632 167.113 176.168 167.913 175.848C168.713 175.512 169.641 175.344 170.697 175.344C171.257 175.344 171.825 175.384 172.401 175.464C172.993 175.544 173.513 175.672 173.961 175.848V175.056C173.961 174.176 173.697 173.488 173.169 172.992C172.641 172.496 171.881 172.248 170.889 172.248C170.185 172.248 169.521 172.376 168.897 172.632C168.273 172.872 167.609 173.216 166.905 173.664L166.017 171.888C166.849 171.328 167.681 170.912 168.513 170.64C169.361 170.368 170.249 170.232 171.177 170.232C172.857 170.232 174.177 170.68 175.137 171.576C176.113 172.456 176.601 173.712 176.601 175.344V180.024C176.601 180.328 176.649 180.544 176.745 180.672C176.857 180.8 177.041 180.872 177.297 180.888V183C177.057 183.048 176.841 183.08 176.649 183.096C176.457 183.112 176.297 183.12 176.169 183.12C175.609 183.12 175.185 182.984 174.897 182.712C174.609 182.44 174.441 182.12 174.393 181.752L174.321 181.032C173.777 181.736 173.081 182.28 172.233 182.664C171.385 183.048 170.529 183.24 169.665 183.24C168.833 183.24 168.089 183.072 167.433 182.736C166.777 182.384 166.265 181.912 165.897 181.32C165.529 180.728 165.345 180.064 165.345 179.328ZM173.337 180.096C173.529 179.888 173.681 179.68 173.793 179.472C173.905 179.264 173.961 179.08 173.961 178.92V177.48C173.513 177.304 173.041 177.176 172.545 177.096C172.049 177 171.561 176.952 171.081 176.952C170.121 176.952 169.337 177.144 168.729 177.528C168.137 177.912 167.841 178.44 167.841 179.112C167.841 179.48 167.937 179.832 168.129 180.168C168.337 180.504 168.625 180.776 168.993 180.984C169.377 181.192 169.849 181.296 170.409 181.296C170.985 181.296 171.537 181.184 172.065 180.96C172.593 180.736 173.017 180.448 173.337 180.096ZM180.788 165.48H183.428V179.376C183.428 180.016 183.524 180.424 183.716 180.6C183.908 180.776 184.148 180.864 184.436 180.864C184.756 180.864 185.052 180.832 185.324 180.768C185.612 180.704 185.86 180.624 186.068 180.528L186.452 182.616C186.068 182.776 185.612 182.912 185.084 183.024C184.556 183.136 184.084 183.192 183.668 183.192C182.772 183.192 182.068 182.944 181.556 182.448C181.044 181.936 180.788 181.232 180.788 180.336V165.48ZM188.943 183V170.448H191.583V183H188.943ZM188.943 168.384V165.48H191.583V168.384H188.943ZM194.923 176.736C194.923 175.536 195.163 174.448 195.643 173.472C196.139 172.48 196.811 171.696 197.659 171.12C198.507 170.528 199.483 170.232 200.587 170.232C201.547 170.232 202.411 170.48 203.179 170.976C203.963 171.472 204.571 172.088 205.003 172.824V165.48H207.643V180.024C207.643 180.328 207.699 180.544 207.811 180.672C207.923 180.8 208.107 180.872 208.363 180.888V183C207.867 183.08 207.483 183.12 207.211 183.12C206.715 183.12 206.291 182.976 205.939 182.688C205.603 182.4 205.427 182.056 205.411 181.656L205.387 180.72C204.907 181.52 204.259 182.144 203.443 182.592C202.627 183.024 201.779 183.24 200.899 183.24C200.035 183.24 199.235 183.072 198.499 182.736C197.779 182.4 197.147 181.928 196.603 181.32C196.075 180.712 195.659 180.016 195.355 179.232C195.067 178.448 194.923 177.616 194.923 176.736ZM205.003 178.488V175.2C204.827 174.688 204.539 174.232 204.139 173.832C203.755 173.416 203.315 173.088 202.819 172.848C202.339 172.608 201.859 172.488 201.379 172.488C200.819 172.488 200.307 172.608 199.843 172.848C199.395 173.088 199.003 173.408 198.667 173.808C198.347 174.208 198.099 174.664 197.923 175.176C197.747 175.688 197.659 176.224 197.659 176.784C197.659 177.36 197.755 177.904 197.947 178.416C198.139 178.912 198.411 179.36 198.763 179.76C199.131 180.144 199.547 180.448 200.011 180.672C200.491 180.88 201.011 180.984 201.571 180.984C201.923 180.984 202.275 180.92 202.627 180.792C202.995 180.664 203.339 180.488 203.659 180.264C203.995 180.04 204.275 179.776 204.499 179.472C204.739 179.168 204.907 178.84 205.003 178.488ZM225.661 178.608C225.661 179.52 225.421 180.304 224.941 180.96C224.477 181.616 223.845 182.12 223.045 182.472C222.245 182.824 221.365 183 220.405 183H212.269V165.96H221.053C221.853 165.96 222.541 166.176 223.117 166.608C223.709 167.024 224.157 167.568 224.461 168.24C224.781 168.896 224.941 169.584 224.941 170.304C224.941 171.136 224.725 171.92 224.293 172.656C223.877 173.376 223.277 173.912 222.493 174.264C223.469 174.552 224.237 175.08 224.797 175.848C225.373 176.6 225.661 177.52 225.661 178.608ZM222.901 178.104C222.901 177.624 222.797 177.192 222.589 176.808C222.397 176.408 222.125 176.088 221.773 175.848C221.437 175.592 221.037 175.464 220.573 175.464H214.957V180.672H220.405C220.885 180.672 221.309 180.56 221.677 180.336C222.061 180.096 222.357 179.784 222.565 179.4C222.789 179 222.901 178.568 222.901 178.104ZM214.957 168.288V173.304H219.901C220.349 173.304 220.749 173.2 221.101 172.992C221.453 172.768 221.733 172.472 221.941 172.104C222.149 171.72 222.253 171.288 222.253 170.808C222.253 170.312 222.157 169.88 221.965 169.512C221.773 169.128 221.509 168.832 221.173 168.624C220.853 168.4 220.477 168.288 220.045 168.288H214.957ZM228.176 179.328C228.176 178.528 228.4 177.832 228.848 177.24C229.312 176.632 229.944 176.168 230.744 175.848C231.544 175.512 232.472 175.344 233.528 175.344C234.088 175.344 234.656 175.384 235.232 175.464C235.824 175.544 236.344 175.672 236.792 175.848V175.056C236.792 174.176 236.528 173.488 236 172.992C235.472 172.496 234.712 172.248 233.72 172.248C233.016 172.248 232.352 172.376 231.728 172.632C231.104 172.872 230.44 173.216 229.736 173.664L228.848 171.888C229.68 171.328 230.512 170.912 231.344 170.64C232.192 170.368 233.08 170.232 234.008 170.232C235.688 170.232 237.008 170.68 237.968 171.576C238.944 172.456 239.432 173.712 239.432 175.344V180.024C239.432 180.328 239.48 180.544 239.576 180.672C239.688 180.8 239.872 180.872 240.128 180.888V183C239.888 183.048 239.672 183.08 239.48 183.096C239.288 183.112 239.128 183.12 239 183.12C238.44 183.12 238.016 182.984 237.728 182.712C237.44 182.44 237.272 182.12 237.224 181.752L237.152 181.032C236.608 181.736 235.912 182.28 235.064 182.664C234.216 183.048 233.36 183.24 232.496 183.24C231.664 183.24 230.92 183.072 230.264 182.736C229.608 182.384 229.096 181.912 228.728 181.32C228.36 180.728 228.176 180.064 228.176 179.328ZM236.168 180.096C236.36 179.888 236.512 179.68 236.624 179.472C236.736 179.264 236.792 179.08 236.792 178.92V177.48C236.344 177.304 235.872 177.176 235.376 177.096C234.88 177 234.392 176.952 233.912 176.952C232.952 176.952 232.168 177.144 231.56 177.528C230.968 177.912 230.672 178.44 230.672 179.112C230.672 179.48 230.768 179.832 230.96 180.168C231.168 180.504 231.456 180.776 231.824 180.984C232.208 181.192 232.68 181.296 233.24 181.296C233.816 181.296 234.368 181.184 234.896 180.96C235.424 180.736 235.848 180.448 236.168 180.096ZM254.851 183H252.211V175.968C252.211 174.8 252.019 173.944 251.635 173.4C251.267 172.856 250.715 172.584 249.979 172.584C249.467 172.584 248.955 172.712 248.443 172.968C247.947 173.224 247.499 173.576 247.099 174.024C246.699 174.456 246.411 174.96 246.235 175.536V183H243.595V170.448H245.995V172.968C246.315 172.408 246.731 171.928 247.243 171.528C247.771 171.112 248.363 170.792 249.019 170.568C249.675 170.344 250.371 170.232 251.107 170.232C251.859 170.232 252.475 170.368 252.955 170.64C253.451 170.912 253.835 171.288 254.107 171.768C254.395 172.232 254.587 172.776 254.683 173.4C254.795 174.008 254.851 174.656 254.851 175.344V183ZM265.766 182.352C265.542 182.464 265.262 182.584 264.926 182.712C264.59 182.84 264.206 182.952 263.774 183.048C263.358 183.144 262.926 183.192 262.478 183.192C261.934 183.192 261.43 183.096 260.966 182.904C260.502 182.712 260.126 182.408 259.838 181.992C259.566 181.56 259.43 181.008 259.43 180.336V172.488H257.774V170.448H259.43V166.32H262.07V170.448H264.806V172.488H262.07V179.496C262.102 179.928 262.238 180.248 262.478 180.456C262.734 180.664 263.046 180.768 263.414 180.768C263.782 180.768 264.134 180.704 264.47 180.576C264.806 180.448 265.054 180.344 265.214 180.264L265.766 182.352ZM273.018 183.24C271.962 183.24 270.962 183.072 270.018 182.736C269.074 182.384 268.266 181.864 267.594 181.176L268.578 179.4C269.298 180.04 270.018 180.504 270.738 180.792C271.474 181.08 272.202 181.224 272.922 181.224C273.658 181.224 274.258 181.088 274.722 180.816C275.186 180.528 275.418 180.112 275.418 179.568C275.418 179.168 275.298 178.872 275.058 178.68C274.818 178.488 274.466 178.32 274.002 178.176C273.554 178.032 273.01 177.872 272.37 177.696C271.474 177.424 270.722 177.144 270.114 176.856C269.506 176.552 269.05 176.184 268.746 175.752C268.442 175.32 268.29 174.768 268.29 174.096C268.29 173.28 268.498 172.584 268.914 172.008C269.33 171.432 269.906 170.992 270.642 170.688C271.394 170.384 272.258 170.232 273.234 170.232C274.146 170.232 274.986 170.376 275.754 170.664C276.538 170.936 277.226 171.368 277.818 171.96L276.69 173.712C276.13 173.2 275.554 172.824 274.962 172.584C274.386 172.344 273.762 172.224 273.09 172.224C272.706 172.224 272.338 172.272 271.986 172.368C271.634 172.448 271.338 172.608 271.098 172.848C270.874 173.072 270.762 173.392 270.762 173.808C270.762 174.144 270.858 174.416 271.05 174.624C271.242 174.832 271.53 175.008 271.914 175.152C272.298 175.296 272.77 175.456 273.33 175.632C274.306 175.92 275.138 176.208 275.826 176.496C276.514 176.768 277.042 177.128 277.41 177.576C277.794 178.008 277.986 178.608 277.986 179.376C277.986 180.592 277.53 181.544 276.618 182.232C275.722 182.904 274.522 183.24 273.018 183.24Z" fill="black"/>
</svg>
